<?xml version="1.0" standalone="no"?>
<!DOCTYPE svg PUBLIC "-//W3C//DTD SVG 20010904//EN"
 "http://www.w3.org/TR/2001/REC-SVG-20010904/DTD/svg10.dtd">
<svg version="1.0" xmlns="http://www.w3.org/2000/svg"
 width="144.000000pt" height="144.000000pt" viewBox="0 0 144.000000 144.000000"
 preserveAspectRatio="xMidYMid meet">
<metadata>
Created by potrace 1.11, written by Peter Selinger 2001-2013
</metadata>
<g transform="translate(0.000000,144.000000) scale(0.100000,-0.100000)"
fill="#000000" stroke="none">
<path d="M0 720 l0 -720 720 0 720 0 0 720 0 720 -720 0 -720 0 0 -720z m945
664 c22 -9 79 -22 127 -29 103 -15 131 -32 193 -119 42 -60 76 -155 74 -211 0
-20 0 -20 -8 0 -8 19 -8 19 -20 -3 -16 -29 -18 -129 -3 -144 7 -7 12 -15 12
-18 0 -9 -72 0 -97 12 -12 6 -32 8 -44 5 -12 -3 -30 -2 -40 4 -17 9 -18 7 -9
-16 6 -15 10 -38 11 -53 0 -15 3 -21 6 -14 8 21 70 14 93 -10 22 -24 22 -36
-2 -52 -12 -7 -26 -3 -57 17 -22 15 -43 27 -46 27 -4 0 -5 -19 -3 -42 l3 -43
51 3 c61 4 75 -9 76 -69 0 -43 -1 -45 -73 -99 -24 -18 -28 -18 -39 -4 -7 8
-14 37 -14 65 -1 49 -2 50 -51 74 -98 48 -155 42 -155 -16 0 -25 6 -33 33 -44
19 -8 39 -21 47 -29 7 -9 25 -16 41 -16 23 0 32 -7 48 -38 l20 -39 -67 22
c-59 19 -76 21 -127 12 -85 -14 -188 -16 -203 -4 -30 24 -32 44 -7 78 14 18
25 36 25 40 0 7 -13 22 -109 131 -18 21 -41 38 -51 38 -9 0 -29 12 -43 26
l-27 26 -9 -23 c-12 -34 -68 -216 -80 -264 -9 -34 -10 -26 -6 48 2 51 0 87 -5
87 -6 0 -11 -10 -12 -22 0 -13 -4 0 -8 27 l-6 50 -13 -30 -14 -30 -8 44 c-5
25 -4 62 1 85 12 52 12 59 0 51 -5 -3 -16 7 -24 22 -8 15 -30 37 -50 47 -34
18 -47 36 -26 36 14 0 31 37 36 78 6 50 43 109 112 179 72 73 197 138 293 151
101 15 209 13 254 -4z m-669 -498 c30 -8 30 -17 -1 -46 -30 -28 -32 -40 -7
-40 39 0 51 -42 36 -119 -8 -39 -19 -39 -59 2 -63 64 -69 102 -32 192 18 46
23 52 31 36 4 -11 19 -22 32 -25z m-167 -250 c-10 -10 -89 -23 -89 -16 0 5 19
13 43 18 40 8 56 7 46 -2z m1284 -76 c4 -3 -4 -13 -18 -20 -28 -15 -39 -9 -49
27 -7 21 -6 22 26 11 18 -6 36 -14 41 -18z m-473 -109 c0 -12 -58 -41 -82 -41
-26 0 -58 19 -43 26 6 2 21 10 35 17 24 12 90 11 90 -2z m-860 -131 c0 -6 5
-10 11 -10 6 0 32 -17 58 -38 25 -21 58 -46 74 -55 36 -23 35 -40 -2 -32 -17
3 -39 1 -50 -5 -16 -8 -25 -7 -38 5 -10 8 -35 29 -55 46 -34 27 -38 36 -38 75
0 42 1 44 20 34 11 -6 20 -15 20 -20z m934 -34 l20 -26 -26 -26 c-22 -22 -34
-26 -87 -26 -63 0 -106 18 -118 48 -9 23 25 52 60 53 18 0 46 4 62 9 38 11 64
2 89 -32z m322 12 c10 -16 -100 -120 -120 -112 -21 8 -20 40 2 60 28 25 86 62
99 63 6 1 15 -4 19 -11z"/>
<path d="M657 1161 c-44 -47 -95 -131 -79 -131 4 0 16 15 26 33 10 17 35 52
56 77 68 83 66 95 -3 21z"/>
<path d="M779 1066 c-1 -3 -2 -11 -3 -18 0 -6 -23 -18 -50 -27 -27 -9 -51 -21
-53 -28 -5 -13 105 -103 125 -103 7 0 30 -12 52 -26 42 -28 86 -28 117 -2 8 6
22 12 31 13 36 3 82 17 82 24 0 17 -109 110 -136 117 -16 4 -40 15 -54 25 -14
9 -37 17 -50 16 -14 0 -33 3 -42 7 -10 5 -19 5 -19 2z m130 -101 c32 -16 44
-39 36 -66 -10 -29 -111 -16 -144 19 l-25 25 23 18 c28 23 72 24 110 4z"/>
</g>
</svg>
